<?xml version="1.0" standalone="no"?>
<!DOCTYPE svg PUBLIC "-//W3C//DTD SVG 20010904//EN"
 "http://www.w3.org/TR/2001/REC-SVG-20010904/DTD/svg10.dtd">
<svg version="1.0" xmlns="http://www.w3.org/2000/svg"
 width="454.000000pt" height="453.000000pt" viewBox="0 0 454.000000 453.000000"
 preserveAspectRatio="xMidYMid meet">

<g transform="translate(0.000000,453.000000) scale(0.100000,-0.100000)"
fill="#000000" stroke="none">
<path d="M1905 4511 c-33 -9 -67 -21 -75 -26 -8 -5 -21 -10 -28 -11 -14 -2
-216 -76 -357 -130 -152 -59 -340 -176 -485 -303 -204 -178 -349 -330 -427
-449 -63 -97 -165 -304 -183 -372 -6 -25 -27 -73 -47 -108 -19 -35 -44 -100
-54 -145 -11 -45 -26 -100 -34 -122 -7 -22 -16 -71 -19 -109 -3 -37 -11 -75
-17 -83 -8 -9 -9 -17 -2 -24 12 -12 33 38 33 78 0 13 15 57 34 98 41 88 60
101 184 118 85 13 87 13 112 54 14 22 37 58 51 79 39 59 81 182 81 239 0 28 5
56 11 63 8 11 7 16 -6 23 -22 13 -22 29 -1 29 13 0 14 3 5 13 -8 10 -6 23 9
52 11 22 20 52 20 68 0 15 14 56 32 90 91 177 214 280 349 292 35 3 80 10 99
15 65 17 164 21 355 13 105 -5 215 -5 245 -2 30 4 120 14 200 24 80 10 160 17
178 16 18 0 43 4 56 9 38 14 92 1 107 -26 6 -13 21 -27 33 -30 20 -6 20 -7 -3
-25 -22 -18 -22 -19 -5 -26 11 -5 19 -15 19 -23 0 -11 9 -14 33 -12 23 2 32
-1 32 -12 0 -8 8 -20 18 -25 15 -9 14 -11 -8 -11 l-25 -1 24 -10 c18 -7 27 -6
32 3 6 10 11 9 21 -3 17 -22 80 -32 209 -34 109 -2 156 -13 109 -26 -25 -7
-24 -7 7 -14 20 -5 33 -15 37 -29 5 -18 8 -19 17 -6 8 12 9 10 4 -8 -4 -13 -1
-37 5 -53 20 -46 80 -38 80 12 0 5 -8 9 -18 9 -22 0 -47 46 -31 56 16 9 75 -5
89 -21 7 -8 19 -15 26 -15 18 0 18 -11 -1 -36 -8 -10 -15 -29 -15 -41 0 -13
-4 -23 -10 -23 -5 0 -10 9 -10 20 0 11 -4 20 -10 20 -5 0 -10 -22 -10 -49 0
-34 -4 -51 -15 -55 -9 -3 -15 -18 -15 -40 0 -26 5 -35 23 -41 12 -3 17 -8 11
-11 -6 -3 -9 -16 -6 -29 2 -14 0 -25 -5 -25 -6 0 -20 -9 -32 -19 l-22 -19 32
-25 c25 -19 32 -33 32 -58 0 -18 -5 -35 -11 -37 -7 -2 -12 -10 -12 -17 0 -8
-9 -20 -21 -28 -17 -12 -19 -19 -10 -35 8 -15 6 -23 -12 -40 -19 -18 -31 -21
-74 -16 -47 6 -52 5 -68 -20 -11 -16 -26 -26 -42 -26 -25 0 -46 -35 -57 -96
-6 -33 -21 -46 -88 -77 -52 -24 -64 -44 -20 -32 148 38 302 55 572 65 157 5
305 15 330 21 116 28 411 16 640 -25 47 -9 88 -16 93 -16 4 0 7 -4 7 -10 0 -5
-13 -10 -30 -10 -35 0 -40 -16 -8 -26 12 -4 53 -25 92 -48 87 -52 111 -95 102
-186 -8 -79 -42 -168 -79 -207 -42 -45 -27 -53 24 -12 61 48 89 114 89 213 0
92 -27 194 -65 246 -18 25 -25 46 -25 81 0 32 -6 55 -21 72 -33 43 -34 84 -3
186 25 83 26 97 16 137 -7 24 -12 61 -12 82 0 41 -29 110 -55 132 -27 23 -45
67 -45 113 0 57 -36 107 -122 173 -35 26 -88 70 -118 96 -31 26 -76 54 -100
63 -25 9 -106 49 -180 89 -74 40 -152 79 -174 86 -67 22 -160 68 -186 93 -47
44 -74 56 -163 71 -79 14 -91 14 -110 1 -31 -22 -137 -17 -137 5 0 13 55 28
89 26 17 -1 31 0 31 4 0 20 -117 60 -169 56 -17 -1 -33 4 -35 10 -3 7 -14 11
-26 9 -12 -2 -32 0 -45 5 -15 6 -27 6 -30 0 -11 -17 -35 -11 -35 9 0 25 -42
35 -86 21 -31 -10 -37 -9 -63 13 -25 21 -44 25 -128 31 -134 10 -157 14 -216
31 -67 20 -206 18 -282 -4z"/>
<path d="M1153 2986 c-34 -6 -65 -14 -69 -18 -4 -5 -4 -8 -1 -8 4 0 80 -7 169
-15 219 -21 486 -60 578 -85 164 -44 185 -50 202 -56 10 -3 18 -1 18 5 0 6 -6
11 -13 11 -7 0 -40 17 -73 38 -102 66 -260 107 -513 132 -124 12 -215 11 -298
-4z"/>
<path d="M856 2788 c-48 -49 -166 -225 -185 -278 -7 -19 -20 -49 -27 -67 -8
-17 -14 -37 -14 -45 0 -7 -7 -23 -15 -35 -8 -12 -12 -24 -8 -26 84 -50 265
-127 300 -127 7 0 13 10 14 23 0 27 69 159 85 164 7 2 22 -13 34 -34 92 -154
134 -214 153 -218 37 -9 278 -23 298 -18 16 5 19 15 19 67 0 69 11 116 36 155
l18 26 7 -29 c5 -17 3 -35 -4 -47 -9 -14 -9 -21 1 -31 6 -6 12 -23 12 -37 0
-16 3 -22 10 -15 8 8 13 69 22 269 1 17 -2 39 -6 50 -7 19 -7 19 8 1 8 -10 17
-23 19 -29 6 -20 56 2 63 28 3 14 11 25 18 25 6 0 17 9 24 20 9 15 19 19 36
14 13 -3 27 -1 30 5 9 13 109 14 154 2 26 -8 32 -7 32 5 0 67 -140 125 -417
174 -139 25 -163 25 -163 3 0 -25 29 -98 72 -181 21 -40 38 -78 38 -86 0 -20
-59 -147 -84 -181 -12 -16 -28 -57 -35 -90 -15 -70 -27 -95 -44 -95 -19 0
-130 118 -169 180 -19 30 -43 62 -53 70 -22 18 -65 107 -65 136 0 11 25 60 56
109 52 82 89 154 82 160 -16 12 -117 25 -203 25 l-107 0 -42 -42z m734 -180
c0 -19 -2 -20 -10 -8 -13 19 -13 30 0 30 6 0 10 -10 10 -22z"/>
<path d="M3430 2803 c-465 -25 -793 -94 -874 -184 -25 -28 -27 -37 -22 -73 9
-52 83 -219 126 -281 48 -70 97 -111 176 -149 124 -60 177 -69 364 -62 227 8
453 42 660 98 109 29 363 236 390 317 17 53 1 182 -27 213 -40 44 -130 78
-263 99 -73 11 -440 26 -530 22z m300 -73 c0 -5 -6 -10 -13 -10 -8 0 -22 -9
-32 -20 -10 -11 -29 -20 -42 -20 -21 0 -22 3 -13 20 14 26 100 52 100 30z
m-360 -20 c0 -5 -7 -10 -15 -10 -8 0 -15 5 -15 10 0 6 7 10 15 10 8 0 15 -4
15 -10z m530 -20 c11 -11 20 -30 20 -42 0 -43 -23 -198 -29 -198 -20 0 -72 59
-77 87 -6 29 -3 34 20 43 28 10 31 26 16 79 -15 54 11 70 50 31z m-450 -65
c-11 -28 2 -41 37 -37 11 2 24 -2 28 -8 12 -19 -26 -50 -60 -50 -33 0 -60 -16
-67 -39 -3 -11 -19 -14 -65 -12 -58 2 -63 0 -89 -28 -16 -18 -37 -31 -51 -31
-27 0 -63 -32 -63 -57 0 -9 12 -29 26 -44 25 -26 25 -29 12 -64 -8 -24 -22
-41 -38 -47 -14 -6 -44 -19 -66 -31 -44 -22 -70 -18 -81 10 -4 10 -16 28 -27
39 -31 32 -75 108 -82 141 -4 21 0 33 15 47 27 24 26 34 -1 38 -24 3 -46 39
-59 97 -9 39 5 66 28 57 8 -3 35 4 61 15 42 20 56 21 152 14 58 -4 121 -8 140
-7 19 1 52 1 73 2 24 0 37 5 37 13 0 9 10 12 29 9 20 -3 35 2 48 15 18 19 19
19 45 1 23 -16 26 -23 18 -43z m-670 -25 c23 -15 1 -42 -45 -54 -34 -10 -40
-17 -46 -46 -4 -19 -6 -37 -3 -39 2 -2 21 -7 41 -11 l38 -6 -39 -17 c-60 -26
-110 -32 -125 -14 -10 13 -9 19 7 34 10 10 26 23 35 28 27 16 12 53 -19 47
-20 -4 -24 0 -24 21 0 32 15 44 75 55 67 13 87 13 105 2z m959 -56 c18 -20 30
-41 28 -47 -3 -11 -132 -15 -143 -4 -8 8 56 87 72 87 6 0 26 -16 43 -36z
m-287 -128 c38 -29 47 -116 12 -116 -19 0 -84 27 -84 35 0 4 12 22 26 40 14
19 23 39 19 45 -9 14 6 12 27 -4z m91 -2 c10 -11 -4 -33 -18 -28 -8 3 -11 12
-8 20 5 15 16 18 26 8z m466 -13 c17 -11 7 -45 -12 -39 -13 5 -23 48 -10 48 4
0 14 -4 22 -9z m-1239 -58 c8 -21 17 -42 19 -46 2 -5 -7 -7 -20 -5 -20 2 -24
10 -27 46 -4 52 9 54 28 5z m568 1 c-5 -25 -35 -41 -49 -27 -9 9 -9 16 1 28
17 21 52 20 48 -1z m411 -13 c18 -12 1 -36 -29 -44 -26 -7 -34 7 -20 33 12 22
27 25 49 11z m-900 -60 c19 -12 43 -93 32 -104 -15 -15 -48 2 -59 31 -22 58
-24 82 -5 82 10 0 24 -4 32 -9z m654 -63 c6 -19 -21 -68 -38 -68 -13 0 -70 49
-63 55 4 4 70 23 85 24 6 1 13 -5 16 -11z m62 -18 c3 -5 -1 -10 -10 -10 -9 0
-13 5 -10 10 3 6 8 10 10 10 2 0 7 -4 10 -10z m-226 -54 c9 -11 8 -15 -5 -20
-27 -10 -54 -7 -54 8 0 25 41 34 59 12z"/>
<path d="M657 2776 c-93 -113 -111 -143 -139 -227 -19 -54 -36 -89 -44 -89 -8
0 -14 -4 -14 -10 0 -10 48 -45 54 -39 2 2 13 32 25 66 11 35 42 102 67 150 43
83 77 163 72 168 -2 2 -11 -7 -21 -19z"/>
<path d="M2071 2796 c2 -2 18 -6 34 -10 22 -5 26 -4 15 4 -14 9 -59 15 -49 6z"/>
<path d="M360 2600 c0 -25 33 -91 54 -109 10 -8 6 5 -10 38 -13 28 -24 57 -24
65 0 8 -4 18 -10 21 -5 3 -10 -3 -10 -15z"/>
<path d="M2205 2586 c-50 -23 -91 -72 -167 -200 -81 -138 -134 -216 -178 -265
-16 -19 -28 -36 -25 -39 18 -19 122 89 190 198 117 188 177 269 211 285 34 16
40 16 96 0 70 -19 84 -14 37 14 -40 24 -118 27 -164 7z"/>
<path d="M1917 2533 c-4 -3 -7 -24 -7 -45 0 -30 4 -38 18 -38 23 0 37 10 51
37 20 39 14 53 -22 53 -19 0 -37 -3 -40 -7z"/>
<path d="M200 2501 c0 -11 5 -23 10 -26 6 -4 10 5 10 19 0 14 -4 26 -10 26 -5
0 -10 -9 -10 -19z"/>
<path d="M1817 2514 c-4 -4 -7 -16 -7 -26 0 -15 6 -19 28 -16 19 2 27 9 27 23
0 20 -33 33 -48 19z"/>
<path d="M2417 2486 c4 -26 0 -42 -18 -67 -20 -29 -22 -41 -19 -118 2 -47 3
-150 2 -229 l-2 -142 34 -48 c18 -26 36 -59 39 -73 4 -15 32 -47 64 -75 62
-52 73 -63 73 -78 0 -20 -93 -97 -150 -123 -52 -24 -60 -31 -57 -50 6 -32 -13
-53 -48 -54 -57 -1 -135 14 -146 27 -16 20 -98 18 -121 -3 -10 -9 -37 -17 -61
-17 -26 -1 -54 -10 -72 -24 -17 -12 -40 -23 -52 -25 -13 -2 -33 -13 -46 -25
-13 -12 -35 -22 -49 -22 -15 0 -40 -11 -56 -25 -16 -13 -33 -21 -38 -16 -14
12 -184 31 -229 25 -93 -12 -155 -40 -155 -71 0 -8 -11 -25 -25 -39 -20 -19
-23 -31 -18 -57 3 -17 13 -41 23 -52 9 -11 20 -28 23 -38 6 -15 10 -16 28 -7
29 16 34 7 22 -45 -12 -51 -2 -66 26 -41 10 9 21 16 25 16 4 0 17 9 28 20 21
19 21 21 3 33 -10 8 -15 19 -11 25 11 18 44 14 54 -5 12 -20 125 -32 136 -14
10 16 52 13 131 -9 56 -16 75 -18 97 -9 20 8 46 8 100 -1 135 -22 288 -65 288
-82 0 -4 7 -8 15 -8 8 0 15 -4 15 -8 0 -13 47 -32 80 -32 51 0 180 -22 175
-30 -2 -4 -16 -5 -29 -3 -14 3 -40 0 -58 -6 -58 -21 -441 -41 -482 -25 -18 7
-34 -15 -38 -51 -3 -25 1 -31 22 -33 14 -2 32 -10 40 -17 8 -7 31 -17 50 -22
50 -13 46 -37 -7 -41 -41 -3 -62 -22 -25 -22 23 0 42 -19 42 -42 0 -10 7 -21
16 -25 21 -8 64 13 64 32 0 19 27 19 60 0 14 -8 35 -14 48 -15 13 0 40 -11 60
-25 l37 -25 -42 0 c-40 0 -43 -2 -54 -40 -13 -44 -29 -44 -29 0 0 34 -29 69
-41 49 -4 -7 -5 -19 -2 -26 4 -10 0 -14 -13 -12 -32 6 -43 -8 -34 -41 7 -25 5
-30 -13 -36 -13 -4 -25 -1 -32 10 -15 20 -34 20 -56 0 -16 -15 -19 -14 -36 5
-9 12 -28 21 -40 21 -17 0 -28 10 -40 35 -18 38 -35 43 -88 24 -28 -11 -35 -9
-54 10 -24 24 -27 41 -9 59 9 9 9 17 1 34 -20 42 -32 88 -27 103 7 17 -18 20
-46 5 -13 -7 -19 -6 -24 6 -3 8 -14 14 -24 12 -10 -2 -33 9 -51 25 -35 29 -60
34 -78 16 -15 -15 -73 10 -73 32 0 9 -7 23 -16 30 -9 7 -20 23 -25 36 -12 32
-22 29 -58 -14 -56 -69 -96 -103 -118 -103 -9 0 -32 -15 -51 -32 l-35 -33 7
50 c5 43 3 52 -14 63 -18 11 -21 9 -30 -13 -6 -15 -10 -30 -10 -35 0 -5 -5
-12 -10 -15 -13 -8 -35 14 -44 43 -4 12 -11 22 -16 22 -5 0 -11 8 -15 19 -6
20 -50 71 -60 71 -18 0 -79 58 -95 90 -10 20 -29 44 -42 52 -27 18 -91 135
-119 217 -11 29 -23 59 -29 66 -5 6 -8 21 -5 33 2 12 0 24 -6 27 -5 4 -9 21
-9 38 0 18 -7 41 -15 51 -8 11 -15 40 -16 65 0 28 -9 64 -24 91 -43 81 -56
114 -64 158 -5 24 -12 46 -16 50 -9 9 -2 -40 20 -137 9 -41 15 -81 12 -90 -2
-9 2 -22 10 -29 7 -7 13 -21 13 -31 0 -46 105 -313 191 -486 52 -105 104 -213
115 -242 15 -35 34 -61 60 -79 22 -16 89 -82 149 -147 61 -65 142 -144 180
-175 39 -30 93 -77 121 -103 58 -54 244 -179 289 -195 133 -47 249 -77 360
-94 115 -17 155 -18 350 -10 162 6 243 14 305 28 115 28 331 102 407 141 34
17 69 31 77 31 8 0 44 20 79 44 35 24 85 53 112 65 81 36 207 151 279 255 36
51 72 99 80 106 9 6 27 50 41 96 14 46 42 112 62 146 83 141 207 420 244 546
15 52 28 73 72 117 46 45 59 66 81 132 43 130 57 220 46 312 -12 105 -32 201
-42 201 -4 0 -8 -4 -8 -9 0 -11 -202 -93 -305 -125 -277 -84 -432 -110 -715
-122 -201 -9 -328 12 -418 70 -53 34 -69 54 -170 211 -148 229 -177 263 -165
191z m1002 -638 c12 -14 21 -30 21 -36 0 -15 38 -44 49 -37 6 3 11 19 11 34 0
27 3 29 53 35 57 6 77 -6 77 -50 0 -12 9 -41 20 -65 28 -62 26 -76 -15 -93
-39 -17 -40 -18 -23 -46 10 -15 9 -22 -5 -38 -23 -25 -21 -49 3 -62 22 -12 17
-35 -5 -26 -7 2 -27 -5 -45 -15 -28 -17 -37 -19 -61 -9 -15 7 -45 12 -66 12
-21 0 -47 8 -61 18 -12 10 -37 22 -55 25 -18 4 -45 19 -62 34 -16 15 -47 38
-67 52 -37 24 -45 38 -30 53 4 4 7 11 7 14 1 16 51 82 62 82 9 0 11 16 9 52
-6 81 9 96 94 94 61 -1 71 -4 89 -28z m-584 -228 c3 -5 -1 -10 -10 -10 -9 0
-13 5 -10 10 3 6 8 10 10 10 2 0 7 -4 10 -10z m-1075 -502 c0 -14 -47 -8 -60
7 -11 13 -10 18 6 30 17 12 21 11 36 -8 10 -12 18 -25 18 -29z m534 7 c29 -9
61 -22 72 -30 18 -13 18 -14 -9 -24 -16 -6 -32 -9 -37 -6 -5 3 -27 7 -50 9
-22 2 -47 9 -55 16 -9 7 -26 9 -46 5 -38 -9 -37 13 2 32 32 17 60 16 123 -2z
m-233 -5 c25 -14 26 -45 2 -35 -10 5 -29 9 -42 10 -32 2 -39 22 -9 28 13 2 24
5 26 6 2 0 12 -4 23 -9z m359 -15 c-7 -8 -18 -15 -24 -15 -6 0 -2 7 8 15 25
19 32 19 16 0z m680 -95 c0 -5 -4 -10 -10 -10 -5 0 -10 5 -10 10 0 6 5 10 10
10 6 0 10 -4 10 -10z m-40 -124 c0 -3 -4 -8 -10 -11 -5 -3 -10 -1 -10 4 0 6 5
11 10 11 6 0 10 -2 10 -4z m-241 -152 c33 -4 61 -10 61 -15 0 -10 -165 -23
-180 -14 -17 10 7 35 35 35 12 0 50 -3 84 -6z m-358 -174 c13 -8 19 -21 19
-45 0 -31 3 -35 25 -35 33 0 45 -28 20 -46 -16 -12 -22 -12 -39 0 -25 17 -113
62 -139 70 -29 9 -14 29 31 41 22 5 44 13 48 18 9 9 12 9 35 -3z m-693 -101
c-2 -26 -8 -34 -23 -34 -16 0 -19 6 -17 30 4 36 21 60 34 47 5 -5 8 -25 6 -43z"/>
<path d="M220 2414 c0 -27 38 -114 50 -114 4 0 19 -11 34 -24 19 -16 27 -31
25 -48 -6 -40 81 -191 99 -173 2 1 -3 53 -9 114 -12 110 -13 112 -48 142 -57
48 -91 82 -91 90 0 5 -13 15 -30 24 -30 15 -30 15 -30 -11z"/>
<path d="M1760 2412 c-22 -18 -22 -21 -10 -70 15 -63 7 -77 -51 -85 -22 -3
-46 -11 -54 -17 -17 -14 -20 -76 -4 -86 12 -7 116 44 167 83 38 29 122 138
122 159 0 10 -10 12 -43 8 -32 -5 -46 -2 -56 10 -18 21 -44 20 -71 -2z"/>
<path d="M4219 2293 c-13 -16 -12 -17 4 -4 16 13 21 21 13 21 -2 0 -10 -8 -17
-17z"/>
<path d="M440 1985 c0 -8 4 -15 10 -15 5 0 7 7 4 15 -4 8 -8 15 -10 15 -2 0
-4 -7 -4 -15z"/>
<path d="M452 1940 c0 -14 2 -19 5 -12 2 6 2 18 0 25 -3 6 -5 1 -5 -13z"/>
<path d="M1887 1613 c-18 -17 -1 -23 66 -22 69 1 71 1 42 14 -32 15 -97 20
-108 8z"/>
<path d="M1988 533 c-17 -4 -33 -32 -23 -41 3 -3 15 4 27 16 24 23 23 30 -4
25z"/>
</g>
</svg>
